<?xml version="1.0" encoding="UTF-8" standalone="no"?>
<!-- Created with Inkscape (http://www.inkscape.org/) -->

<svg
   width="153.28264mm"
   height="164.75737mm"
   viewBox="0 0 153.28264 164.75737"
   version="1.1"
   id="svg8705"
   xmlns="http://www.w3.org/2000/svg"
   xmlns:svg="http://www.w3.org/2000/svg">
  <defs
     id="defs8702">
    <clipPath
       clipPathUnits="userSpaceOnUse"
       id="clipPath10195">
      <path
         id="path10197"
         style="fill:#ff0000;fill-opacity:1;fill-rule:nonzero;stroke:none;stroke-width:0.264583"
         d="M 40.983546,45.910894 V 210.66828 H 176.22387 V 45.910894 Z M 141.57792,178.69762 c 0.2419,0 0.48364,2.6e-4 0.72554,0.001 0.70087,0.002 1.40186,0.005 2.10271,0.0124 0.97875,0.011 1.95765,0.026 2.93574,0.0656 1.08368,0.0487 2.16676,0.11627 3.24476,0.2403 0.30269,0.0336 0.48538,0.0617 0.78032,0.0687 0.10544,0.002 0.30726,-0.0948 0.31626,0.0103 0.0859,1.02092 0.20324,1.87834 0.33124,2.60036 0.565,-0.0827 1.13805,-0.12351 1.7198,-0.11885 1.002,0.0928 2.07559,0.18506 2.96881,0.6997 0.28201,0.16248 0.5363,0.3687 0.8046,0.55293 0.35692,1.05224 1.17459,2.05013 1.07073,3.1564 -0.14983,1.5961 -1.29162,2.31062 -2.55333,2.64325 0.11921,0.12327 0.2361,0.24913 0.35864,0.36845 -0.58952,1.21849 -1.00888,2.53513 -1.76837,3.65559 -0.1372,0.2024 -0.39253,0.26435 -0.64802,0.32143 2.25185,2.50755 -0.0293,5.91051 -4.932,4.48965 -1.34421,-0.38956 -2.6798,-0.79933 -3.96824,-1.34876 -1.00254,-0.64495 -2.16164,-1.18649 -2.25154,-2.70887 -0.0504,-0.85384 0.22416,-1.70016 0.57723,-2.50166 -0.88481,0.0738 -1.77033,0.14696 -2.65875,0.12712 h -5.3e-4 c -5.11141,-0.11447 -6.19189,-4.21788 -3.24373,-5.87251 0.0366,-0.38091 0.10723,-0.75926 0.19585,-1.13636 -2.10448,-1.89812 -0.80511,-5.33281 3.89227,-5.32629 z" />
    </clipPath>
  </defs>
  <g
     id="layer1"
     transform="translate(-22.941222,-45.910891)">
    <path
       style="fill:none;stroke:#000000;stroke-width:7.99999"
       d="m 152.51198,191.54796 -6.30621,-7.32593 c 0,0 -2.59496,-108.512762 -2.59496,-118.001506 0,-9.488744 -11.75527,-4.435829 -5.92214,-1.586833 5.83312,2.848996 1.16979,2.053789 7.38613,-4.867539 6.21633,-6.921328 -7.60042,-9.841913 -7.60042,-9.841913 l -91.743578,2.973822 c 1.584775,132.078749 1.584775,132.078749 1.584775,132.078749 0,0 0.197291,25.6709 8.239388,11.26461 8.042098,-14.4063 8.981103,-19.95974 8.981103,-19.95974 l 102.123362,-1.66386 c 0,0 13.57825,23.80327 -1.73934,29.95416 -15.3176,6.15088 -113.675924,-3.19063 -113.675924,-3.19063 l -3.562553,-1.44402 v 0 l 0.58561,-0.67252 h -1.239308 v 0 l 1.648419,0.37939"
       id="path9203"
       clip-path="url(#clipPath10195)" />
    <path
       id="path9205"
       style="fill:none;stroke:#000000;stroke-width:7.99999"
       d="m 43.267643,52.344092 c -0.908397,0.704114 -1.781231,0.816634 -2.397786,0.559139 -2.11965,0.566014 -4.235404,1.146977 -6.347933,1.738912 -0.514665,0.142995 -1.029934,0.284944 -1.545125,0.426847 -9.707294,9.753495 -4.790406,15.227494 -4.790406,15.227494 l 16.940051,-1.248502 c 0,0 2.41175,-10.767644 0.676445,-16.70389 z" />
    <path
       style="fill:none;stroke:#000000;stroke-width:7.99999"
       d="m 70.506459,89.204328 50.713231,-4.266692 v 0 l -0.66683,-1.072407"
       id="path10199" />
    <path
       style="fill:none;stroke:#000000;stroke-width:7.99999"
       d="m 77.151901,122.04933 39.774319,-6.35575 v 0"
       id="path10201" />
    <path
       style="fill:none;stroke:#000000;stroke-width:7.99999"
       d="m 81.268918,151.70267 47.173472,-9.73053 v 0"
       id="path10203" />
  </g>
</svg>
